# xmcd
#
# Track frame offsets:
# 150
# 17177
# 36641
# 56394
# 72325
# 94297
# 113128
# 130583
# 147410
# 168888
# 189905
#
# Disc length: 2753 seconds
#
#
# Revision: 0
# Processed by: cddbd v1.5.2PL0 Copyright (c) Steve Scherf et al.
# Submitted via: FreeRIP 2.95 
#
DISCID=980abf0b
DTITLE=Mary James - Truth Cries Out
DYEAR=2006
DGENRE=Country
TTITLE0=Sweet Sweet Love
TTITLE1=Praise To The Maker
TTITLE2=Do You Know My Name
TTITLE3=It's A Good Thing
TTITLE4=For All That I've Done
TTITLE5=I Will Fly
TTITLE6=Truth Cries Out
TTITLE7=Now That I Know Love
TTITLE8=Nothing I Want More
TTITLE9=Hungry (Falling On My Knees)
TTITLE10=You Gave It All
EXTD=
EXTT0=
EXTT1=
EXTT2=
EXTT3=
EXTT4=
EXTT5=
EXTT6=
EXTT7=
EXTT8=
EXTT9=
EXTT10=
PLAYORDER=
